<?xml version="1.0" encoding="utf-8"?>
<!-- Generator: Adobe Illustrator 23.1.0, SVG Export Plug-In . SVG Version: 6.00 Build 0)  -->
<svg version="1.1" id="Layer_1" xmlns="http://www.w3.org/2000/svg" xmlns:xlink="http://www.w3.org/1999/xlink" x="0px" y="0px"
	 viewBox="0 0 1080 1080" style="enable-background:new 0 0 1080 1080;" xml:space="preserve">
<style type="text/css">
	.st0{fill:#142D4B;}
	.st1{fill:#03080E;}
	.st2{fill:url(#SVGID_1_);}
	.st3{fill:url(#SVGID_2_);}
	.st4{fill:#033F7E;}
	.st5{fill:url(#SVGID_3_);}
	.st6{fill:url(#SVGID_4_);}
	.st7{fill:url(#SVGID_5_);}
	.st8{fill:url(#SVGID_6_);}
</style>
<g>
	<path class="st0" d="M717.19,440.02v221.64c0,5.55-2.96,10.74-7.73,13.55L531.17,780.6c-2.42,1.44-5.19,2.19-8,2.19
		c-3.06,0-6.02-0.88-8.59-2.54l-17.94-11.67l-24.56-15.98l1.85-2.2l-6.67-3.24l-1.24,1.5L335.25,663.6
		c-4.48-2.92-7.16-7.86-7.16-13.2V431.48c0-5.44,2.88-10.57,7.51-13.42l177.03-108.73c2.48-1.53,5.32-2.33,8.24-2.33
		c3.05,0,6.01,0.87,8.57,2.53l180.59,117.29C714.51,429.74,717.19,434.66,717.19,440.02z"/>
	<polygon class="st0" points="473.92,750.4 472.07,752.6 471.66,752.34 466.01,748.66 467.25,747.15 	"/>
	<path class="st1" d="M662.32,504.89L549.94,626.04l-0.95,0.53c-1.98,1.09-4.1,1.77-6.33,2.02c-0.62,0.07-1.25,0.1-1.87,0.1
		c-3.58,0-6.45-1.14-8.22-2.1l-0.71-0.38l-27.42-24.68c-2.01-1.81-4.6-2.8-7.31-2.8h-67.57c-2.39,0-4.63-0.45-6.77-1.33
		c-2.43-1.02-4.62-2.59-6.36-4.56l-13.53-14.55c-1.31,0.23-2.65,0.38-3.98,0.47c-0.87,0.07-2.08,0.15-3.46,0.15
		c-4.23,0-8-0.77-11.54-2.34c-1.73-0.77-7.69-3.78-11.89-10.23c-6.74-10.37-6.93-28.2,4.5-38.95c7.3-6.87,16.14-7.9,20.76-7.9
		c1.81,0,3.09,0.16,3.55,0.23c3.43,0.47,12.09,2.45,18.55,10.35c7.34,8.98,6.74,19.65,5.84,24.89l13.01,13.93h74.4
		c1.93-1.32,3.76-2.8,5.44-4.42c1.75-1.68,3.4-3.27,4.83-5.58c1.64-2.66,3.67-5.97,2.98-9.62c-0.28-1.46-0.98-2.86-2.08-4.17
		c-0.16-0.19-0.43-0.31-0.75-0.31l-80.17-0.59c-1.87-0.02-3.64-0.83-4.87-2.2l-12.38-13.81c-2.27-2.54-2.22-6.47,0.12-8.94
		l165.88-174.69l45.09,29.28l-78.11,117.99l98.99,2c2.59,0.05,4.93,1.63,5.93,4.01C664.57,500.21,664.09,503,662.32,504.89z"/>
	<linearGradient id="SVGID_1_" gradientUnits="userSpaceOnUse" x1="500.2614" y1="543.5588" x2="784.4019" y2="543.5588">
		<stop  offset="0" style="stop-color:#3474CC"/>
		<stop  offset="0.4018" style="stop-color:#1B5AAE"/>
		<stop  offset="0.7554" style="stop-color:#0C499B"/>
		<stop  offset="1" style="stop-color:#064394"/>
	</linearGradient>
	<path class="st2" d="M787.81,431.24V664.6c0,18.89-10.09,36.59-26.36,46.2L574.94,821.03c-3.43,1.97-8.01,4.32-13.61,6.5
		c-1.68,0.65-8.55,3.28-15.67,4.68c-13.64,2.69-26.43,0.56-34.39-1.42c9.38,1.56,22.58,1.99,35.52-4.24
		c1.39-0.67,2.71-1.38,3.96-2.13l186.5-110.23c16.25-9.61,26.36-27.31,26.36-46.2V434.63c0-18.24-9.13-35.08-24.44-45.01
		l-189.4-123.01c-3.17-2.04-7.1-4.12-11.8-5.73c-14.41-4.94-27.37-2.54-33.82-0.82c7.96-3.27,25.05-8.94,45.99-5.19
		c10.02,1.8,18.06,5.24,23.83,8.34l189.4,123.01C778.67,396.16,787.81,412.99,787.81,431.24z"/>
	<linearGradient id="SVGID_2_" gradientUnits="userSpaceOnUse" x1="281.6706" y1="544.9796" x2="763.6147" y2="544.9796">
		<stop  offset="0" style="stop-color:#0186FD"/>
		<stop  offset="0.4555" style="stop-color:#007CFD"/>
		<stop  offset="1" style="stop-color:#0075FD"/>
	</linearGradient>
	<path class="st3" d="M739.18,389.62l-189.4-123.01c-7.45-4.84-15.87-7.64-24.46-8.4c-11.3-0.99-22.88,1.55-32.85,7.68
		L307.25,379.65c-15.78,9.7-25.58,27.22-25.58,45.73v230.47c0,18.23,9.12,35.05,24.4,44.99l125.52,81.66l1.13,0.73l0.17,0.11
		l0.12,0.08l2.86,1.87l5.71,3.71l2.93,1.91l0.02,0.01l49.65,32.29c8.94,5.82,19.08,8.74,29.24,8.74c6.53,0,13.07-1.21,19.3-3.63
		c2.75-1.06,5.44-2.36,8.04-3.9l186.5-110.23c16.25-9.61,26.36-27.31,26.36-46.2V434.63C763.61,416.39,754.48,399.56,739.18,389.62z
		 M721.71,661.66c0,7.17-3.79,13.8-9.95,17.45L533.47,784.5c-6.64,3.91-14.91,3.74-21.36-0.46l-22.8-14.83l-4-2.6l-12.73-8.29
		l-0.28-0.18l-0.12-0.08l-0.06-0.03l-3.18-2.07l-0.08-0.06l-5.66-3.68l-0.19-0.12l-2.74-1.79l-0.01-0.01l-0.21-0.14l-15.54-10.11
		l-111.71-72.67c-5.74-3.74-9.21-10.13-9.21-16.99V431.48c0-7.04,3.66-13.59,9.66-17.27l177.02-108.73
		c6.67-4.09,15.09-3.99,21.65,0.27l59.75,38.81l3.85,2.5l37.44,24.31l3.8,2.46l75.75,49.19c5.75,3.74,9.22,10.14,9.22,17V661.66z"/>
	<path class="st1" d="M712.49,423.02L531.9,305.75c-6.56-4.26-14.98-4.36-21.65-0.27L333.24,414.2c-6,3.68-9.66,10.23-9.66,17.27
		V650.4c0,6.86,3.47,13.25,9.21,16.99l179.32,116.65c6.45,4.21,14.73,4.37,21.36,0.46l178.29-105.38
		c6.16-3.65,9.95-10.29,9.95-17.45V440.02C721.71,433.16,718.24,426.76,712.49,423.02z M717.19,661.66c0,5.55-2.96,10.74-7.73,13.55
		L531.17,780.6c-2.42,1.44-5.19,2.19-8,2.19c-3.06,0-6.02-0.88-8.59-2.54L335.25,663.6c-4.48-2.92-7.16-7.86-7.16-13.2V431.48
		c0-5.44,2.88-10.57,7.51-13.42l177.03-108.73c2.48-1.53,5.32-2.33,8.24-2.33c3.05,0,6.01,0.87,8.57,2.53l180.59,117.29
		c4.49,2.92,7.17,7.84,7.17,13.2V661.66z"/>
	<path class="st1" d="M439.49,736.94c14.12-23.56,28.24-47.13,42.36-70.69c0.23-1.52,0.29-3.95-0.81-6.55
		c-0.91-2.15-2.27-3.65-3.48-4.65l-23.94-0.56l-22.63-0.52c-2.66,4.44-8.1,11.21-17.66,14.06c-2.84,0.85-5.78,1.28-8.76,1.28
		c-7.57,0-14.72-2.72-20.13-7.65c-11.93-10.89-11.34-28.63-4.72-39.8c5.83-9.84,16.61-16.19,27.48-16.19c1.46,0,2.93,0.11,4.38,0.33
		c12.23,1.82,19.21,10.31,22.46,15.65l51.74,0.77c9.78,0.15,19.11,4.43,25.6,11.75l20.33,22.96c2.98,3.36,3.11,8.35,0.3,11.86
		c-22.79,27.49-45.58,54.98-68.36,82.47C455.59,746.61,447.54,741.77,439.49,736.94z"/>
	<path class="st4" d="M528.48,667.29c-22.82,27.61-45.63,55.24-68.43,82.87l-15.54-10.11l41.65-71.09c0.42-1.96,0.8-5.76-0.95-9.9
		c-1.61-3.8-4.21-6.1-6.12-7.38l-25.35-0.59l-25.3-0.59c-0.07,0-0.12,0.03-0.15,0.07c-1.58,3.3-6.32,11.28-16.25,14.24
		c-2.41,0.72-4.93,1.1-7.46,1.1c-6.45,0-12.51-2.31-17.09-6.48c-10.16-9.27-9.59-24.52-3.88-34.15
		c5.03-8.49,14.29-13.98,23.59-13.98c1.23,0,2.49,0.1,3.72,0.28c12.16,1.81,18.32,11.5,20.4,15.58c0.02,0.06,0.08,0.09,0.14,0.09
		l54.25,0.8c8.51,0.14,16.64,3.85,22.28,10.23l20.34,22.97C529.83,662.96,529.9,665.51,528.48,667.29z"/>
	<linearGradient id="SVGID_3_" gradientUnits="userSpaceOnUse" x1="393.0746" y1="737.6259" x2="456.0135" y2="639.4194">
		<stop  offset="0" style="stop-color:#0077FD"/>
		<stop  offset="0.1675" style="stop-color:#007CFD"/>
		<stop  offset="0.3768" style="stop-color:#008CFD"/>
		<stop  offset="0.6081" style="stop-color:#00A5FD"/>
		<stop  offset="0.8537" style="stop-color:#01C8FD"/>
		<stop  offset="1" style="stop-color:#01E1FD"/>
	</linearGradient>
	<path class="st5" d="M450.13,755.46c24.77-30.99,49.55-61.98,74.32-92.98c0.74-0.92,0.7-2.24-0.08-3.12
		c-6.78-7.65-13.56-15.31-20.33-22.96c-5.24-5.91-12.72-9.35-20.62-9.47c-18.08-0.27-36.17-0.54-54.25-0.81
		c-0.9-0.01-1.71-0.52-2.12-1.32c-1.77-3.47-7.48-12.7-18.72-14.37c-10.93-1.63-20.44,4.88-25.03,12.61
		c-5.6,9.45-5.36,23.29,3.46,31.33c5.88,5.36,14.56,7.22,22.38,4.88c9.02-2.7,13.35-9.9,14.86-13.05c0.41-0.85,1.29-1.38,2.23-1.36
		c16.86,0.39,33.73,0.78,50.59,1.17c0.45,0.01,0.9,0.14,1.27,0.39c1.7,1.14,4.98,3.75,6.94,8.37c2.07,4.9,1.49,9.29,1.11,11.18
		c-0.05,0.27-0.15,0.52-0.29,0.75c-15.77,26.92-31.55,53.84-47.32,80.77C445.74,752.45,442.91,750.5,450.13,755.46z"/>
	<path class="st1" d="M652.69,613.78l-9.98,48.48c-0.9,4.44-4.72,7.55-9.27,7.55c-2.71,0-5.21-1.12-7.03-3.16l-8.95-10.02
		L496.63,768.59l-24.97-16.24l121.25-122.48l-4.46-5.43c-2.18-2.63-2.76-6.26-1.51-9.44c1.25-3.19,4.13-5.46,7.52-5.92l47.69-6.57
		c0.44-0.07,0.87-0.09,1.3-0.09c2.84,0,5.5,1.27,7.31,3.48C652.56,608.12,653.27,610.99,652.69,613.78z"/>
	<path class="st4" d="M648.26,612.87l-9.97,48.48c-0.49,2.32-2.48,3.95-4.85,3.95c-1.41,0-2.71-0.59-3.66-1.65l-11.74-13.15
		c-0.1-0.11-0.21-0.14-0.31-0.14c-0.07,0-0.18,0.02-0.27,0.11L489.31,769.21l-17.01-11.07L598.74,630.4
		c0.15-0.15,0.16-0.37,0.02-0.54l-6.83-8.29c-1.13-1.38-1.42-3.27-0.78-4.93c0.64-1.66,2.15-2.85,3.92-3.09l47.68-6.57
		c0.24-0.03,0.46-0.05,0.69-0.05c1.48,0,2.87,0.66,3.81,1.82C648.19,609.92,648.55,611.41,648.26,612.87z"/>
	<linearGradient id="SVGID_4_" gradientUnits="userSpaceOnUse" x1="459.0941" y1="800.4009" x2="608.8453" y2="641.9684">
		<stop  offset="0" style="stop-color:#0077FD"/>
		<stop  offset="0.1675" style="stop-color:#007CFD"/>
		<stop  offset="0.3768" style="stop-color:#008CFD"/>
		<stop  offset="0.6081" style="stop-color:#00A5FD"/>
		<stop  offset="0.8537" style="stop-color:#01C8FD"/>
		<stop  offset="1" style="stop-color:#01E1FD"/>
	</linearGradient>
	<path class="st6" d="M447.6,782.87c50.16-50.67,100.32-101.34,150.48-152.01c0.96-0.97,1.03-2.52,0.16-3.57
		c-2.28-2.76-4.55-5.52-6.83-8.29c-1.33-1.61-0.37-4.05,1.7-4.34l47.69-6.57c1.82-0.25,3.35,1.38,2.98,3.18
		c-3.32,16.16-6.65,32.32-9.97,48.49c-0.44,2.15-3.14,2.88-4.6,1.24c-3.92-4.38-7.83-8.76-11.75-13.15
		c-0.99-1.11-2.71-1.19-3.8-0.18L471.98,778.95c-0.25,0.24-0.55,0.42-0.88,0.54l-20.67,7.75
		C447.76,788.25,445.59,784.9,447.6,782.87z"/>
	<path class="st4" d="M659.01,501.82l-111.9,120.61l-0.32,0.18c-1.45,0.8-3.02,1.3-4.63,1.48c-0.45,0.06-0.92,0.08-1.37,0.08
		c-2.65,0-4.76-0.85-6.07-1.55l-0.24-0.14l-27.02-24.33c-2.85-2.55-6.51-3.96-10.34-3.96h-67.64c-1.72,0-3.39-0.33-4.97-0.99
		c-1.81-0.75-3.45-1.93-4.75-3.41l-14.49-15.59c-0.51-0.54-1.27-0.77-1.99-0.61c-1.54,0.33-3.11,0.55-4.67,0.66
		c-0.87,0.06-1.94,0.14-3.17,0.14c-3.58,0-6.76-0.64-9.71-1.96c-1.02-0.45-6.31-3-9.92-8.56c-5.75-8.84-5.92-24.05,3.8-33.2
		c6.17-5.8,13.71-6.67,17.67-6.67c1.56,0,2.63,0.14,2.92,0.18c2.91,0.41,10.23,2.07,15.68,8.74c6.62,8.12,5.62,17.89,4.68,22.35
		c-0.14,0.67,0.05,1.37,0.51,1.87l14.59,15.6c0.38,0.43,0.94,0.67,1.51,0.67h76.19c0.41,0,0.81-0.12,1.15-0.34
		c2.4-1.57,4.65-3.37,6.7-5.35c1.88-1.8,3.81-3.66,5.54-6.47c1.83-2.97,4.6-7.46,3.57-12.84c-0.43-2.23-1.46-4.32-3.05-6.23
		c-1.02-1.21-2.54-1.91-4.19-1.92l-80.15-0.59c-0.59-0.01-1.14-0.26-1.54-0.7l-12.38-13.81c-0.72-0.8-0.7-2.03,0.05-2.81
		l166.45-175.3l37.44,24.31l-80.53,121.66c-0.9,1.36,0.06,3.19,1.68,3.22l103.43,2.08C659.32,498.37,660.22,500.51,659.01,501.82z"
		/>
	<linearGradient id="SVGID_5_" gradientUnits="userSpaceOnUse" x1="634.9286" y1="339.6603" x2="477.4456" y2="574.0536">
		<stop  offset="0" style="stop-color:#0077FD"/>
		<stop  offset="0.1675" style="stop-color:#007CFD"/>
		<stop  offset="0.3768" style="stop-color:#008CFD"/>
		<stop  offset="0.6081" style="stop-color:#00A5FD"/>
		<stop  offset="0.8537" style="stop-color:#01C8FD"/>
		<stop  offset="1" style="stop-color:#01E1FD"/>
	</linearGradient>
	<path class="st7" d="M596.8,345.52l-167.11,176c4.07,4.54,8.14,9.09,12.21,13.63c26.69,0.2,53.39,0.39,80.08,0.59
		c2.27,0.02,4.45,0.99,5.91,2.73c1.47,1.75,2.95,4.17,3.53,7.26c1.19,6.24-1.99,11.4-3.87,14.45c-1.88,3.05-3.97,5.06-5.9,6.92
		c-3.05,2.93-5.97,4.97-8.14,6.31h-79.35c-5.83-6.24-11.67-12.48-17.5-18.72c0.28-0.84,4.18-12.99-3.66-22.58
		c-5.31-6.5-12.65-7.71-14.24-7.94c-0.8-0.11-10.98-1.38-18.72,5.9c-8.67,8.16-8.88,21.97-3.46,30.32c3.36,5.17,8.39,7.48,8.95,7.73
		c4.73,2.1,9.14,1.81,11.8,1.63c2.79-0.19,5.09-0.73,6.71-1.22c5.43,5.84,10.86,11.69,16.29,17.53c0.63,0.71,1.9,1.98,3.92,2.82
		c1.84,0.77,3.48,0.84,4.41,0.81H496c4.37,0,8.59,1.62,11.85,4.55c8.94,8.05,17.88,16.1,26.82,24.14c0.9,0.49,3.17,1.55,6.1,1.22
		c1.69-0.19,2.99-0.77,3.8-1.22c37.12-40.02,74.24-80.03,111.36-120.05c-36.96-0.75-73.93-1.49-110.89-2.24
		c28.42-42.93,56.83-85.86,85.25-128.79C619.13,360.03,607.97,352.78,596.8,345.52z"/>
	<polygon class="st1" points="477.04,752.73 476.81,753.01 472.35,758.18 447.72,786.77 444.29,790.76 441.36,788.85 435.65,785.15 
		432.79,783.28 460.04,750.16 465.1,744.01 467.92,746.07 473.35,750.04 	"/>
	<path class="st0" d="M473.68,750.2c-1.61,1.9-3.21,3.81-4.82,5.71L441.58,789l-5.71-3.71l27.32-33.07
		c1.63-2.04,3.26-4.08,4.88-6.13C469.94,747.46,471.81,748.83,473.68,750.2z"/>
	<polygon class="st4" points="456.38,747.65 430.57,781.87 433.02,783.43 460.04,750.16 	"/>
</g>
</svg>
